<?xml version="1.0" encoding="UTF-8"?>
<svg id="Layer_1" data-name="Layer 1" xmlns="http://www.w3.org/2000/svg" viewBox="0 0 884.67 488.13">
  <g>
    <g>
      <path d="M132.83,182.31l1.48-1.06h-23.86l-43.08,118.89-43.71-118.89H0l1.48,1.06c3.8,2.96,6.34,8.02,6.34,13.09v129.87c0,4.85-2.53,9.92-6.34,12.88l-1.48,1.06h19.64l-1.27-1.06c-4.01-2.96-6.55-8.02-6.55-12.88v-131.14l47.3,128.82,2.11,5.7,8.24-22.81,40.97-113.61v133.04c0,4.85-2.53,9.92-6.34,12.88l-1.48,1.06h31.68l-1.48-1.06c-4.01-2.96-6.55-8.02-6.55-12.88v-129.87c0-5.07,2.53-10.14,6.55-13.09Z"/>
      <path d="M204.61,335.2h-35.27v-73.07h15.63c9.71,0,17.74,6.12,20.48,15.42l1.48,4.43v-43.5l-1.48,4.43c-2.75,9.29-10.77,15.42-20.48,15.42h-15.63v-73.07h33.16c12.04,0,22.81,7.6,26.4,19.21l3.59,10.35-3.8-33.57h-82.99l1.48,1.06c3.8,2.96,6.34,8.02,6.34,13.09v129.87c0,4.85-2.53,9.92-6.34,12.88l-1.48,1.06h84.89l4.01-33.58-3.59,10.56c-4.01,11.4-14.36,19.01-26.4,19.01Z"/>
      <path d="M338.27,325.28l-25.76-50.68s0,0,0,0l-5.24-10.32c18.32-4.44,29.95-19.54,29.95-40.78,0-25.34-16.68-42.24-41.81-42.24h-50.89l1.48,1.06c3.8,2.96,6.34,8.02,6.34,13.09v129.87c0,4.85-2.53,9.92-6.34,12.88l-1.48,1.06h31.68l-1.48-1.06c-4.01-2.96-6.55-8.02-6.55-12.88v-59.55h23.86l30.41,59.55c2.53,4.85,2.32,9.92-1.48,12.88l-1.48,1.06h31.68l-1.48-1.06c-3.8-2.96-8.87-8.02-11.4-12.88ZM283.58,261.92h-15.41v-76.65h15.41c22.81,0,38.01,15.21,38.01,38.22s-15.2,38.43-38.01,38.43Z"/>
      <path d="M450.4,325.28l-25.76-50.68s0,0,0,0l-5.24-10.32c18.32-4.44,29.95-19.54,29.95-40.78,0-25.34-16.68-42.24-41.81-42.24h-50.89l1.48,1.06c3.8,2.96,6.34,8.02,6.34,13.09v129.87c0,4.85-2.53,9.92-6.34,12.88l-1.48,1.06h31.68l-1.48-1.06c-4.01-2.96-6.55-8.02-6.55-12.88v-59.55h23.86l30.41,59.55c2.53,4.85,2.32,9.92-1.48,12.88l-1.48,1.06h31.68l-1.48-1.06c-3.8-2.96-8.87-8.02-11.4-12.88ZM395.7,261.92h-15.41v-76.65h15.41c22.81,0,38.01,15.21,38.01,38.22s-15.2,38.43-38.01,38.43Z"/>
      <path d="M790.91,325.44l-42.87-144.19-42.44,144.19c-1.27,4.8-5.49,9.81-10.35,12.73l-1.48,1.04h19.85l-1.05-1.04c-3.17-2.92-4.22-7.93-2.75-12.73l8.45-29.21h47.51l8.66,29.21c1.48,4.8.63,9.81-2.53,12.73l-1.06,1.04h32.1l-1.69-1.04c-4.65-2.92-9.08-7.93-10.35-12.73ZM719.54,292.47l22.6-76.99,22.59,76.99h-45.19Z"/>
      <path d="M864.4,181.26l.63,1.06c2.32,2.96,1.69,7.81-1.06,13.09l-28.08,54.48-27.24-54.48c-2.53-5.07-2.53-10.14,0-13.09l.84-1.06h-33.58l1.9,1.06c5.49,2.96,10.56,8.02,13.09,13.09l31.47,62.51v67.37c0,4.85-2.53,9.92-6.55,12.88l-1.48,1.06h31.68l-1.48-1.06c-3.8-2.96-6.55-8.02-6.55-12.88v-71.17l30.41-58.71c2.74-5.28,8.66-10.14,14.36-13.09l1.9-1.06h-20.27Z"/>
      <path d="M537.82,181.26l.63,1.06c2.32,2.96,1.69,7.81-1.06,13.09l-28.08,54.48-27.24-54.48c-2.53-5.07-2.53-10.14,0-13.09l.84-1.06h-33.58l1.9,1.06c5.49,2.96,10.56,8.02,13.09,13.09l31.47,62.51v67.37c0,4.85-2.53,9.92-6.55,12.88l-1.48,1.06h31.68l-1.48-1.06c-3.8-2.96-6.55-8.02-6.55-12.88v-71.17l30.41-58.71c2.74-5.28,8.66-10.14,14.36-13.09l1.9-1.06h-20.27Z"/>
      <path d="M575.34,195.24c-1.27-5.01-5.7-10.02-10.56-12.94l-1.48-1.04h32.1l-1.06,1.04c-3.17,2.92-3.8,7.93-2.53,12.94l26.4,104.54,24.5-96.4-2.32-8.14c-1.05-5.01-5.7-10.02-10.35-12.94l-1.69-1.04h32.31l-1.27,1.04c-3.17,2.92-3.8,7.93-2.53,12.94l26.39,104.54,26.61-104.54c1.06-5.01.21-10.02-2.96-12.94l-1.06-1.04h19.85l-1.48,1.04c-4.86,2.92-9.08,7.93-10.35,12.94l-36.53,143.98-32.73-127.91-32.31,127.91-36.96-143.98Z"/>
    </g>
    <path d="M210.18,158.8l-1.48,1.06h84.89l4.02-36.88-3.59,10.56c-4.01,11.4-14.36,22.31-26.4,22.31h-35.26v-73.07h15.63c9.71,0,17.74,6.12,20.48,15.42l1.48,4.44v-43.5l-1.48,4.43c-2.74,9.29-10.77,15.42-20.48,15.42h-15.63V5.91h33.15c12.03,0,22.81,7.6,26.39,19.22l3.59,10.35-3.8-33.58h-82.99l1.48,1.06c3.8,2.96,6.34,8.02,6.34,13.09v129.87c0,4.86-2.54,9.93-6.34,12.88Z"/>
    <path d="M401.94,158.8l-1.48,1.06h84.89l4.01-45.13-3.59,10.56c-4.01,11.4-14.35,30.56-26.39,30.56h-35.26V16.05c0-5.07,2.53-10.14,6.54-13.09l1.48-1.06h-31.68l1.48,1.06c3.8,2.96,6.34,8.02,6.34,13.09v129.87c0,4.86-2.53,9.93-6.34,12.88Z"/>
    <path d="M307.34,158.8l-1.48,1.06h84.89l4.01-45.13-3.59,10.56c-4.01,11.4-14.35,30.56-26.39,30.56h-35.26V16.05c0-5.07,2.53-10.14,6.54-13.09l1.48-1.06h-31.68l1.48,1.06c3.8,2.96,6.34,8.02,6.34,13.09v129.87c0,4.86-2.53,9.93-6.34,12.88Z"/>
    <path d="M551.33,161.76c24.71,0,42.24-17.1,42.24-41.6,0-50.89-75.81-49.42-75.81-89.96,0-14.78,9.92-26.19,24.7-26.19,16.68,0,35.9,14.36,44.98,42.87V1.9c-11.97,13.58-17.53-1.9-45.82-1.9-21.96,0-38.43,15.63-38.43,36.53,0,44.77,75.81,43.29,75.81,90.6,0,18.37-11.4,30.83-28.72,30.83-18.58,0-39.91-14.57-48.99-43.08v44.98c14.3-14.23,19.64,1.9,50.05,1.9Z"/>
    <path d="M602.33,158.8l-1.48,1.06h50.89c26.19,0,41.81-15.84,41.81-41.39s-15.2-40.12-38.22-41.6c20.7-2.75,34.42-16.68,34.42-36.32,0-21.75-16.89-38.65-42.02-38.65h-46.88l1.48,1.06c3.8,2.96,6.34,8.02,6.34,13.09v129.87c0,4.86-2.53,9.93-6.34,12.88ZM624.5,5.91h11.4c22.81,0,38.01,15.21,38.01,34.63s-15.2,34.84-38.01,34.84h-11.4V5.91ZM624.5,79.4h15.42c22.81,0,38.01,15.21,38.01,38.65s-14.78,37.8-38.01,37.8h-15.42v-76.45Z"/>
    <path d="M703.89,16.05l31.47,62.51v67.36c0,4.86-2.53,9.93-6.55,12.88l-1.48,1.06h31.68l-1.48-1.06c-3.8-2.96-6.55-8.02-6.55-12.88v-71.17l30.41-58.71c2.74-5.28,8.66-10.14,14.36-13.09l1.9-1.06h-20.27l.63,1.06c2.32,2.96,1.69,7.81-1.06,13.09l-28.08,54.48-27.24-54.48c-2.53-5.07-2.53-10.14,0-13.09l.84-1.06h-33.58l1.9,1.06c5.49,2.96,10.56,8.02,13.09,13.09Z"/>
    <path d="M165.99,159.86h33.58l-2.11-1.06c-5.28-2.96-10.35-8.02-12.88-12.88l-12.73-25.47h0s-35.09-70.17-35.09-70.17l31.98-34.23c4.22-4.65,11.19-10.14,16.89-13.09l2.11-1.06h-20.48l.84,1.06c2.11,2.96.21,8.45-4.01,13.09l-53.43,57.23V16.05c0-5.07,2.53-10.14,6.55-13.09l1.48-1.06h-31.68l1.48,1.06c3.8,2.96,6.34,8.02,6.34,13.09v129.87c0,4.86-2.53,9.93-6.34,12.88l-1.48,1.06h31.68l-1.48-1.06c-4.01-2.96-6.55-8.02-6.55-12.88v-68h.21l14.15-15.21,41.81,83.2c2.53,4.86,2.53,9.93,0,12.88l-.85,1.06Z"/>
  </g>
  <g>
    <path d="M176.37,472.32l.32-1.27c2.12,0,4.01-.51,5.68-1.54,1.66-1.02,2.6-2.74,2.81-5.15l.85-11.46h-21.97c-1.06,1.98-2.12,3.95-3.18,5.89-1.06,1.95-2.16,3.87-3.29,5.78-1.2,2.33-1.31,4-.32,4.99.99.99,2.55,1.49,4.67,1.49l-.21,1.27h-18.04l.32-1.27c2.55,0,4.64-.51,6.26-1.54,1.63-1.02,3.15-2.74,4.56-5.15l2.23-3.93,28.02-50.31c.28-.56.6-1.15.96-1.75.35-.6.65-1.2.9-1.8.25-.6.37-1.18.37-1.75s-.21-1.03-.64-1.38c1.56,0,3.41-.76,5.57-2.28,2.16-1.52,4.12-4.33,5.89-8.44l-5.52,71.64c-.21,2.2.37,3.86,1.75,4.99,1.38,1.13,3.09,1.7,5.15,1.7l-.32,1.27h-22.82ZM186.24,450.35l3.29-42.99-23.99,42.99h20.7Z"/>
    <path d="M293.43,395.8l-6.69,29.93h-1.27c.21-1.41.35-2.87.42-4.35.07-1.27.05-2.71-.05-4.3-.11-1.59-.37-3.13-.8-4.62-.99-3.96-2.6-6.9-4.83-8.81-2.23-1.91-4.71-2.94-7.43-3.08-2.72-.14-5.54.48-8.44,1.86-2.9,1.38-5.48,3.41-7.75,6.1-1.77,2.05-3.5,4.6-5.2,7.64-1.7,3.04-3.22,6.33-4.56,9.87-1.35,3.54-2.41,7.2-3.18,10.98-.78,3.79-1.11,7.47-1.01,11.04.11,3.57.74,6.92,1.91,10.03,1.17,3.11,2.99,5.77,5.47,7.96,1.49,1.27,3.18,2.23,5.09,2.87,1.91.64,4.03.85,6.37.64,3.75-.28,7.15-1.38,10.19-3.29,3.04-1.91,5.71-4.28,8.01-7.11,2.3-2.83,4.24-5.96,5.84-9.39,1.59-3.43,2.81-6.81,3.66-10.14h1.38c-.85,3.96-2.18,7.89-3.98,11.78-1.8,3.89-3.98,7.39-6.53,10.51-2.55,3.11-5.48,5.66-8.81,7.64-3.33,1.98-6.97,3.08-10.93,3.29-2.48.14-4.74.02-6.79-.37-2.05-.39-4-1.04-5.84-1.96-3.25-1.7-5.89-4.1-7.91-7.22s-3.43-6.61-4.24-10.51c-.81-3.89-1.06-8.05-.74-12.47s1.17-8.77,2.55-13.06c1.38-4.28,3.29-8.33,5.73-12.15,2.44-3.82,5.34-7.09,8.7-9.82,3.36-2.72,7.2-4.74,11.52-6.05,4.32-1.31,9.02-1.61,14.12-.9,1.91.28,3.68.55,5.31.8,1.63.25,3.08.34,4.35.26,1.27-.07,2.35-.37,3.24-.9.88-.53,1.47-1.43,1.75-2.71h1.38Z"/>
    <path d="M297.47,438.25c.21-.85.37-1.72.48-2.6s.12-1.65.05-2.28c-.07-.64-.26-1.06-.58-1.27-.32-.21-.8-.11-1.43.32-.99.64-1.91,1.5-2.76,2.6-.85,1.1-1.66,2.28-2.44,3.56h-1.59c1.27-2.48,2.72-4.72,4.35-6.74,1.63-2.02,3.36-3.38,5.2-4.08.92-.35,1.8-.41,2.65-.16.85.25,1.56.83,2.12,1.75.85,1.42,1.13,2.95.85,4.62-.28,1.66-.6,3.2-.96,4.62-.07.35-.28,1.34-.64,2.97-.35,1.63-.81,3.68-1.38,6.16,1.49-2.97,3.17-5.94,5.04-8.92,1.87-2.97,3.77-5.55,5.68-7.75,1.2-1.41,2.42-2.39,3.66-2.92,1.24-.53,2.35-.72,3.34-.58,1.41.14,2.56.74,3.45,1.8.88,1.06,1.25,2.3,1.11,3.71-.14.85-.41,1.66-.8,2.44-.39.78-.9,1.42-1.54,1.91-.64.5-1.35.85-2.12,1.06-.78.21-1.45.21-2.02,0-.57-.21-1.01-.65-1.33-1.33-.32-.67-.37-1.57-.16-2.71,0-.14.02-.26.05-.37.03-.11.05-.23.05-.37-.14-.78-.53-1.17-1.17-1.17-.5,0-1.03.21-1.59.64-.57.36-1.06.83-1.49,1.43-.42.6-.81,1.11-1.17,1.54-2.33,3.4-4.26,6.6-5.78,9.6-1.52,3.01-2.81,5.94-3.87,8.81s-1.96,5.73-2.71,8.6c-.74,2.87-1.54,5.93-2.39,9.18h-6.05l7.85-34.07Z"/>
    <path d="M324.32,451.84c-.35,1.34-.6,2.9-.74,4.67-.14,1.77-.07,3.5.21,5.2.28,1.7.83,3.25,1.64,4.67s2.03,2.44,3.66,3.08c2.26.92,4.88.62,7.85-.9,2.97-1.52,5.7-4.3,8.17-8.33l1.27-2.23h1.8c-2.27,4.39-4.74,7.82-7.43,10.29-1.63,1.63-3.49,2.83-5.57,3.61-2.09.78-4.16,1.1-6.21.96-3.33-.14-5.89-1.11-7.69-2.92-1.8-1.8-2.95-4.09-3.45-6.85-.49-2.76-.41-5.8.27-9.13.67-3.32,1.79-6.58,3.34-9.76,1.56-3.18,3.52-6.1,5.89-8.76,2.37-2.65,4.97-4.69,7.8-6.1,1.63-.78,3.33-1.33,5.09-1.65,1.77-.32,3.4-.3,4.88.05,2.05.42,3.61,1.45,4.67,3.08,1.06,1.63,1.06,3.86,0,6.69-.28.78-.66,1.5-1.11,2.18-.46.67-.97,1.36-1.54,2.07-1.27,1.42-2.78,2.8-4.51,4.14-1.74,1.35-3.61,2.49-5.63,3.45s-4.12,1.66-6.32,2.12c-2.19.46-4.32.58-6.37.37ZM344.06,439.84c1.49-2.12,2.33-4,2.55-5.62.21-1.63-.02-2.87-.69-3.72-.67-.85-1.77-1.24-3.29-1.17-1.52.07-3.31.78-5.36,2.12-1.34.85-2.65,1.93-3.93,3.24-1.27,1.31-2.46,2.79-3.56,4.46-1.1,1.66-2.07,3.43-2.92,5.31-.85,1.88-1.56,3.77-2.12,5.68,3.82.07,7.45-.83,10.88-2.71,3.43-1.87,6.24-4.41,8.44-7.59Z"/>
    <path d="M378.13,428.27l.11-.64c1.56,0,3.03-.21,4.41-.64s2.63-1.27,3.77-2.55h.64l-.85,3.93-7.85,33.75c-.21.85-.37,1.72-.48,2.6s-.12,1.63-.05,2.23c.07.6.26,1.03.58,1.27.32.25.83.16,1.54-.26,1.41-.99,2.72-2.4,3.93-4.25,1.2-1.84,2.23-3.75,3.08-5.73h1.49c-.64,1.56-1.38,3.11-2.23,4.67-.85,1.56-1.75,3.01-2.71,4.35-.96,1.34-1.98,2.51-3.08,3.5-1.1.99-2.18,1.7-3.24,2.12-.99.35-1.91.39-2.76.11-.85-.28-1.56-.85-2.12-1.7-.78-1.41-1.04-2.95-.8-4.62.25-1.66.55-3.24.9-4.72l1.59-7.01c-1.34,2.76-2.85,5.48-4.51,8.17-1.66,2.69-3.59,5.06-5.78,7.11-1.27,1.13-2.51,1.91-3.71,2.34-1.2.42-2.3.6-3.29.53-2.55-.14-4.53-1.56-5.94-4.25-1.41-2.69-1.95-5.91-1.59-9.66.28-3.11.96-6.39,2.02-9.82,1.06-3.43,2.44-6.63,4.14-9.6,1.7-2.97,3.66-5.55,5.89-7.75,2.23-2.19,4.69-3.57,7.38-4.14,2.97-.64,5.27-.3,6.9,1.01,1.63,1.31,2.72,3.1,3.29,5.36.14-.43.28-.94.42-1.54.14-.6.21-1.18.21-1.75s-.07-1.08-.21-1.54c-.14-.46-.5-.76-1.06-.9ZM374.73,431.46c-1.42-1.06-3.01-1.28-4.78-.64-1.35.43-2.71,1.4-4.09,2.92-1.38,1.52-2.67,3.34-3.87,5.47-1.2,2.12-2.3,4.46-3.29,7-.99,2.55-1.8,5.06-2.44,7.54s-1.04,4.81-1.22,7.01c-.18,2.19-.09,4.03.27,5.52.49,1.91,1.33,2.99,2.49,3.24,1.17.25,2.42-.12,3.77-1.11.85-.64,1.77-1.5,2.76-2.6.99-1.1,1.96-2.32,2.92-3.66.96-1.34,1.91-2.76,2.87-4.25s1.82-2.97,2.6-4.46c.64-1.2,1.38-2.83,2.23-4.88.85-2.05,1.5-4.17,1.96-6.37.46-2.19.58-4.26.37-6.21-.21-1.95-1.06-3.45-2.55-4.51Z"/>
    <path d="M405.19,419.25l-1.8,8.17h5.2l-.42,2.02h-5.31c-1.2,5.52-2.44,10.98-3.71,16.4-1.27,5.41-2.55,10.84-3.82,16.29-.21.85-.37,1.72-.48,2.6s-.12,1.63-.05,2.23c.07.6.26,1.03.58,1.27.32.25.83.16,1.54-.26,1.41-.99,2.72-2.4,3.93-4.25,1.2-1.84,2.23-3.75,3.08-5.73h1.49c-.64,1.56-1.38,3.11-2.23,4.67-.85,1.56-1.75,3.01-2.71,4.35-.96,1.34-1.98,2.51-3.08,3.5-1.1.99-2.18,1.7-3.24,2.12-.99.35-1.91.39-2.76.11-.85-.28-1.56-.85-2.12-1.7-.78-1.41-1.04-2.95-.8-4.62.25-1.66.55-3.24.9-4.72.64-2.76,1.18-5.11,1.65-7.06.46-1.95.87-3.7,1.22-5.25.35-1.56.69-3.04,1.01-4.46.32-1.41.65-2.97,1.01-4.67.49-2.05.92-3.89,1.27-5.52.35-1.63.78-3.4,1.27-5.31h-5.63l.42-2.02h.96c2.83,0,5.11-.74,6.85-2.23,1.73-1.49,3.2-3.46,4.41-5.94h1.38Z"/>
    <path d="M415.27,462.13c-.21.85-.37,1.72-.48,2.6-.11.88-.12,1.63-.05,2.23.07.6.27,1.03.58,1.27.32.25.83.16,1.54-.26,1.41-.99,2.72-2.4,3.93-4.25,1.2-1.84,2.23-3.75,3.08-5.73h1.49c-.64,1.56-1.38,3.11-2.23,4.67-.85,1.56-1.75,3.01-2.71,4.35s-1.98,2.51-3.08,3.5c-1.1.99-2.18,1.7-3.24,2.12-.99.35-1.91.39-2.76.11-.85-.28-1.56-.85-2.12-1.7-.78-1.41-1.04-2.95-.8-4.62.25-1.66.55-3.24.9-4.72l5.41-23.46c.21-.85.37-1.72.48-2.6s.12-1.65.05-2.28c-.07-.64-.26-1.06-.58-1.27-.32-.21-.8-.11-1.43.32-.99.64-1.91,1.5-2.76,2.6-.85,1.1-1.66,2.28-2.44,3.56h-1.59c1.27-2.48,2.72-4.72,4.35-6.74,1.63-2.02,3.36-3.38,5.2-4.08.92-.35,1.8-.41,2.65-.16.85.25,1.56.83,2.12,1.75.85,1.42,1.13,2.95.85,4.62-.28,1.66-.6,3.2-.96,4.62l-5.41,23.56ZM423.66,408.43c1.13,0,2.03.53,2.71,1.59.67,1.06.94,2.34.8,3.82-.14,1.56-.67,2.87-1.59,3.93-.92,1.06-1.98,1.59-3.18,1.59s-2.14-.53-2.81-1.59c-.67-1.06-.9-2.37-.69-3.93.14-1.48.67-2.76,1.59-3.82.92-1.06,1.98-1.59,3.18-1.59Z"/>
    <path d="M433.21,472.32l-2.02-34.07c-.07-.85-.16-1.72-.27-2.6-.11-.88-.28-1.65-.53-2.28-.25-.64-.57-1.06-.96-1.27-.39-.21-.87-.11-1.43.32-.78.64-1.45,1.5-2.02,2.6-.57,1.1-1.03,2.28-1.38,3.56h-1.59c.36-1.49.78-2.9,1.27-4.25.5-1.34,1.1-2.51,1.8-3.5,1.56-2.26,3.36-3.4,5.41-3.4.85.07,1.66.36,2.44.85.78.5,1.45,1.35,2.02,2.55.57,1.35.92,2.74,1.06,4.19.14,1.45.25,2.64.32,3.56.21,4.46.44,8.88.69,13.27.25,4.39.51,8.81.8,13.27,1.49-2.05,3.09-4.41,4.83-7.06,1.73-2.65,3.34-5.32,4.83-8.01.42-.85.94-1.96,1.54-3.34.6-1.38,1.08-2.81,1.43-4.3.35-1.49.57-2.9.64-4.25.07-1.34-.21-2.37-.85-3.08-.35-.35-.69-.64-1.01-.85-.32-.21-.66-.43-1.01-.64-.85-.64-1.33-1.34-1.43-2.12s.04-1.5.42-2.18c.39-.67.99-1.2,1.8-1.59.81-.39,1.68-.51,2.6-.37.85.14,1.65.46,2.39.96.74.5,1.29,1.2,1.64,2.12.49,1.13.62,2.48.37,4.03-.25,1.56-.66,3.11-1.22,4.67-.57,1.56-1.19,3.03-1.86,4.41-.67,1.38-1.22,2.49-1.65,3.34-.99,1.77-1.95,3.41-2.87,4.94-.92,1.52-1.74,2.78-2.44,3.77-1.2,1.91-2.41,3.78-3.61,5.62-1.2,1.84-2.32,3.5-3.34,4.99-1.03,1.49-1.95,2.76-2.76,3.82-.81,1.06-1.4,1.84-1.75,2.34h-2.33Z"/>
    <path d="M460.91,451.84c-.35,1.34-.6,2.9-.74,4.67-.14,1.77-.07,3.5.21,5.2.28,1.7.83,3.25,1.64,4.67.81,1.42,2.03,2.44,3.66,3.08,2.26.92,4.88.62,7.85-.9,2.97-1.52,5.7-4.3,8.17-8.33l1.27-2.23h1.8c-2.27,4.39-4.74,7.82-7.43,10.29-1.63,1.63-3.49,2.83-5.57,3.61-2.09.78-4.16,1.1-6.21.96-3.33-.14-5.89-1.11-7.69-2.92-1.8-1.8-2.95-4.09-3.45-6.85-.49-2.76-.41-5.8.27-9.13.67-3.32,1.79-6.58,3.34-9.76,1.56-3.18,3.52-6.1,5.89-8.76,2.37-2.65,4.97-4.69,7.8-6.1,1.63-.78,3.33-1.33,5.1-1.65,1.77-.32,3.4-.3,4.88.05,2.05.42,3.61,1.45,4.67,3.08,1.06,1.63,1.06,3.86,0,6.69-.28.78-.66,1.5-1.11,2.18-.46.67-.97,1.36-1.54,2.07-1.27,1.42-2.78,2.8-4.51,4.14-1.73,1.35-3.61,2.49-5.62,3.45-2.02.96-4.12,1.66-6.32,2.12-2.19.46-4.32.58-6.37.37ZM480.65,439.84c1.49-2.12,2.34-4,2.55-5.62.21-1.63-.02-2.87-.69-3.72-.67-.85-1.77-1.24-3.29-1.17s-3.31.78-5.36,2.12c-1.34.85-2.65,1.93-3.93,3.24-1.28,1.31-2.46,2.79-3.56,4.46-1.1,1.66-2.07,3.43-2.92,5.31-.85,1.88-1.56,3.77-2.12,5.68,3.82.07,7.45-.83,10.88-2.71s6.24-4.41,8.44-7.59Z"/>
    <path d="M528.09,449.29l9.66-40.76.64-2.55c.49-2.05.19-3.68-.9-4.88-1.1-1.2-2.67-1.8-4.72-1.8l.32-1.27h21.76l-.32,1.27c-2.62,0-4.6.6-5.94,1.8-1.34,1.2-2.3,3.04-2.87,5.52l-9.45,39.8c-1.13,4.81-2.76,9.64-4.88,14.49-2.12,4.85-4.8,9.23-8.01,13.16s-6.99,7.18-11.3,9.77c-4.31,2.58-9.23,4.01-14.75,4.3l-.64-1.27c3.04-.07,5.84-.71,8.38-1.91,2.55-1.2,4.88-2.8,7.01-4.78s4.05-4.23,5.78-6.74c1.73-2.51,3.25-5.15,4.56-7.91,1.31-2.76,2.44-5.54,3.4-8.33.96-2.79,1.72-5.43,2.28-7.91Z"/>
    <path d="M540.93,450.14c1.06-5.02,2.74-9.22,5.04-12.58,2.3-3.36,4.79-5.89,7.48-7.59,2.69-1.7,5.39-2.55,8.12-2.55s5.06.85,7.01,2.55c1.95,1.7,3.33,4.23,4.14,7.59.81,3.36.69,7.55-.37,12.58-1.06,5.03-2.74,9.23-5.04,12.63-2.3,3.4-4.79,5.94-7.48,7.64-2.69,1.7-5.4,2.53-8.12,2.49-2.73-.04-5.06-.88-7.01-2.55-1.95-1.66-3.34-4.19-4.19-7.59-.85-3.4-.71-7.61.42-12.63ZM546.87,450.14c-.99,4.74-1.33,8.67-1.01,11.78.32,3.11,1.02,5.43,2.12,6.95,1.1,1.52,2.49,2.27,4.19,2.23,1.7-.04,3.45-.85,5.25-2.44,1.8-1.59,3.5-3.93,5.1-7.01,1.59-3.08,2.88-6.91,3.87-11.52.99-4.74,1.34-8.67,1.06-11.78-.28-3.11-.99-5.41-2.12-6.9-1.13-1.49-2.55-2.19-4.25-2.12-1.7.07-3.45.9-5.25,2.49s-3.52,3.93-5.15,7.01c-1.63,3.08-2.9,6.85-3.82,11.3Z"/>
    <path d="M583.17,462.13c-.21.85-.37,1.72-.48,2.6s-.12,1.63-.05,2.23c.07.6.27,1.03.58,1.27.32.25.83.16,1.54-.26,1.2-.78,2.37-1.98,3.5-3.61,1.13-1.63,2.3-3.46,3.5-5.52,1.34-2.4,2.64-5.02,3.87-7.85,1.24-2.83,2.39-5.68,3.45-8.54,1.06-2.87,1.98-5.61,2.76-8.23.78-2.62,1.38-4.88,1.8-6.79h6.05l-7.96,34.71c-.21.85-.37,1.72-.48,2.6s-.12,1.63-.05,2.23c.07.6.27,1.03.58,1.27.32.25.8.16,1.43-.26,1.41-.99,2.74-2.4,3.98-4.25,1.24-1.84,2.25-3.75,3.03-5.73h1.48c-.64,1.56-1.36,3.11-2.17,4.67-.81,1.56-1.7,3.01-2.65,4.35s-1.98,2.51-3.08,3.5c-1.1.99-2.17,1.7-3.24,2.12-.99.35-1.91.39-2.76.11-.85-.28-1.56-.85-2.12-1.7-.85-1.41-1.13-2.95-.85-4.62.28-1.66.6-3.24.96-4.72l3.29-14.12c-.85,1.91-1.75,3.89-2.71,5.94-.96,2.05-1.96,4.07-3.02,6.05-.57.99-1.29,2.25-2.18,3.77-.88,1.52-1.87,2.99-2.97,4.41-1.1,1.42-2.32,2.64-3.66,3.66-1.34,1.02-2.72,1.54-4.14,1.54s-2.51-.64-3.29-1.91c-.78-1.41-1.04-2.95-.8-4.62.25-1.66.55-3.24.9-4.72l5.41-23.46c.21-.85.37-1.72.48-2.6.11-.88.12-1.65.05-2.28-.07-.64-.26-1.06-.58-1.27-.32-.21-.8-.11-1.43.32-.99.64-1.91,1.5-2.76,2.6-.85,1.1-1.66,2.28-2.44,3.56h-1.59c1.27-2.48,2.72-4.72,4.35-6.74,1.63-2.02,3.36-3.38,5.2-4.08.92-.35,1.8-.41,2.65-.16s1.55.83,2.12,1.75c.85,1.42,1.13,2.95.85,4.62-.29,1.66-.6,3.2-.96,4.62l-5.41,23.56Z"/>
    <path d="M620,438.25c.21-.85.37-1.72.48-2.6.11-.88.12-1.65.05-2.28s-.26-1.06-.58-1.27c-.32-.21-.8-.11-1.43.32-.99.64-1.91,1.5-2.76,2.6s-1.66,2.28-2.44,3.56h-1.59c1.27-2.48,2.72-4.72,4.35-6.74,1.63-2.02,3.36-3.38,5.2-4.08.92-.35,1.8-.41,2.65-.16.85.25,1.56.83,2.12,1.75.85,1.42,1.13,2.95.85,4.62-.28,1.66-.6,3.2-.96,4.62-.07.35-.28,1.34-.64,2.97-.36,1.63-.81,3.68-1.38,6.16,1.49-2.97,3.17-5.94,5.04-8.92,1.87-2.97,3.77-5.55,5.68-7.75,1.2-1.41,2.42-2.39,3.66-2.92,1.24-.53,2.35-.72,3.34-.58,1.41.14,2.56.74,3.45,1.8.88,1.06,1.25,2.3,1.11,3.71-.14.85-.41,1.66-.8,2.44-.39.78-.9,1.42-1.54,1.91-.64.5-1.35.85-2.12,1.06-.78.21-1.45.21-2.02,0-.57-.21-1.01-.65-1.33-1.33-.32-.67-.37-1.57-.16-2.71,0-.14.02-.26.05-.37.03-.11.05-.23.05-.37-.14-.78-.53-1.17-1.17-1.17-.49,0-1.03.21-1.59.64-.57.36-1.06.83-1.49,1.43-.42.6-.81,1.11-1.17,1.54-2.34,3.4-4.26,6.6-5.79,9.6-1.52,3.01-2.81,5.94-3.87,8.81-1.06,2.87-1.96,5.73-2.71,8.6-.74,2.87-1.54,5.93-2.39,9.18h-6.05l7.86-34.07Z"/>
    <path d="M653.54,438.25c.21-.85.37-1.72.48-2.6.11-.88.12-1.65.05-2.28-.07-.64-.26-1.06-.58-1.27-.32-.21-.8-.11-1.43.32-.99.64-1.91,1.5-2.76,2.6-.85,1.1-1.66,2.28-2.44,3.56h-1.59c1.27-2.48,2.72-4.72,4.35-6.74,1.63-2.02,3.36-3.38,5.2-4.08.92-.35,1.8-.41,2.65-.16s1.55.83,2.12,1.75c.85,1.42,1.13,2.95.85,4.62-.29,1.66-.6,3.2-.96,4.62l-1.27,5.94c.35-.78.74-1.52,1.17-2.23s.85-1.45,1.27-2.23c.71-1.06,1.59-2.39,2.65-3.98,1.06-1.59,2.26-3.08,3.61-4.46,1.34-1.38,2.74-2.49,4.19-3.34,1.45-.85,2.88-1.06,4.3-.64.64.14,1.22.46,1.75.96.53.5.92,1.27,1.17,2.34.25,1.06.3,2.48.16,4.25-.14,1.77-.57,4-1.27,6.69-.78,3.4-1.56,6.78-2.34,10.14s-1.56,6.74-2.33,10.14c-.21.85-.37,1.72-.48,2.6-.11.88-.12,1.63-.05,2.23.07.6.26,1.03.58,1.27.32.25.8.16,1.43-.26,1.41-.99,2.72-2.4,3.93-4.25,1.2-1.84,2.23-3.75,3.08-5.73h1.49c-.64,1.56-1.36,3.11-2.17,4.67-.81,1.56-1.72,3.01-2.71,4.35-.99,1.34-2.02,2.51-3.08,3.5-1.06.99-2.16,1.7-3.29,2.12-2.05.71-3.65.18-4.78-1.59-.85-1.41-1.13-2.95-.85-4.62.28-1.66.6-3.24.96-4.72.92-3.96,1.82-7.91,2.71-11.83.88-3.93,1.75-7.87,2.6-11.83.28-1.41.35-2.6.21-3.56s-.46-1.61-.96-1.96c-.5-.35-1.15-.37-1.96-.05s-1.75,1.08-2.81,2.28c-.99,1.06-1.86,2.2-2.6,3.4-.74,1.2-1.29,2.09-1.65,2.65-1.63,2.83-2.96,5.47-3.98,7.91-1.03,2.44-1.9,4.9-2.6,7.38-.71,2.48-1.33,5.03-1.86,7.64-.53,2.62-1.18,5.48-1.96,8.6h-6.05l7.85-34.07Z"/>
    <path d="M709.58,428.27l.11-.64c1.55,0,3.02-.21,4.41-.64,1.38-.42,2.63-1.27,3.77-2.55h.64l-.85,3.93-7.86,33.75c-.21.85-.37,1.72-.48,2.6-.11.88-.12,1.63-.05,2.23.07.6.26,1.03.58,1.27.32.25.83.16,1.54-.26,1.42-.99,2.72-2.4,3.93-4.25,1.2-1.84,2.23-3.75,3.08-5.73h1.49c-.64,1.56-1.38,3.11-2.23,4.67-.85,1.56-1.75,3.01-2.71,4.35-.96,1.34-1.98,2.51-3.08,3.5-1.1.99-2.17,1.7-3.24,2.12-.99.35-1.91.39-2.76.11-.85-.28-1.56-.85-2.12-1.7-.78-1.41-1.05-2.95-.8-4.62.25-1.66.55-3.24.9-4.72l1.59-7.01c-1.34,2.76-2.85,5.48-4.51,8.17-1.66,2.69-3.59,5.06-5.78,7.11-1.27,1.13-2.51,1.91-3.71,2.34-1.2.42-2.3.6-3.29.53-2.55-.14-4.53-1.56-5.94-4.25-1.41-2.69-1.95-5.91-1.59-9.66.28-3.11.96-6.39,2.02-9.82,1.06-3.43,2.44-6.63,4.14-9.6,1.7-2.97,3.66-5.55,5.89-7.75s4.69-3.57,7.38-4.14c2.97-.64,5.27-.3,6.9,1.01,1.63,1.31,2.72,3.1,3.29,5.36.14-.43.28-.94.42-1.54.14-.6.21-1.18.21-1.75s-.07-1.08-.21-1.54c-.14-.46-.5-.76-1.06-.9ZM706.18,431.46c-1.42-1.06-3.01-1.28-4.78-.64-1.35.43-2.71,1.4-4.09,2.92-1.38,1.52-2.67,3.34-3.87,5.47s-2.3,4.46-3.29,7c-.99,2.55-1.8,5.06-2.44,7.54s-1.05,4.81-1.22,7.01c-.18,2.19-.09,4.03.27,5.52.49,1.91,1.33,2.99,2.49,3.24,1.17.25,2.42-.12,3.77-1.11.85-.64,1.77-1.5,2.76-2.6.99-1.1,1.96-2.32,2.92-3.66.96-1.34,1.91-2.76,2.87-4.25s1.82-2.97,2.6-4.46c.64-1.2,1.38-2.83,2.23-4.88.85-2.05,1.5-4.17,1.96-6.37.46-2.19.58-4.26.37-6.21-.21-1.95-1.06-3.45-2.55-4.51Z"/>
    <path d="M731.65,414.58c.21-.99.39-1.93.53-2.81.14-.88.12-1.68-.05-2.39-.18-.71-.53-1.31-1.06-1.8-.53-.49-1.33-.78-2.39-.85l.21-.64c.92,0,1.95-.14,3.08-.42,1.13-.28,2.26-.67,3.4-1.17,1.13-.49,2.14-1.08,3.02-1.75.88-.67,1.54-1.4,1.96-2.17h.64l-.96,3.93c-2.2,9.69-4.39,19.3-6.58,28.82-2.19,9.52-4.42,19.12-6.69,28.82-.21.85-.37,1.72-.48,2.6-.11.88-.13,1.63-.05,2.23.07.6.26,1.03.58,1.27.32.25.83.16,1.54-.26,1.41-.99,2.72-2.4,3.93-4.25,1.2-1.84,2.23-3.75,3.08-5.73h1.48c-.64,1.56-1.38,3.11-2.23,4.67s-1.75,3.01-2.71,4.35-1.98,2.51-3.08,3.5c-1.1.99-2.18,1.7-3.24,2.12-.99.35-1.91.39-2.76.11s-1.55-.85-2.12-1.7c-.78-1.41-1.04-2.95-.8-4.62.25-1.66.55-3.24.9-4.72l10.83-47.12Z"/>
  </g>
</svg>