<?xml version="1.0" encoding="UTF-8"?>
<svg id="Layer_1" data-name="Layer 1" xmlns="http://www.w3.org/2000/svg" viewBox="0 0 652.58 419.36">
  <g>
    <g>
      <path d="M97.98,169.07l1.09-.78h-17.6l-31.78,87.7-32.24-87.7H0l1.09.78c2.8,2.18,4.67,5.92,4.67,9.66v95.8c0,3.58-1.87,7.32-4.67,9.5l-1.09.78h14.49l-.93-.78c-2.96-2.18-4.83-5.92-4.83-9.5v-96.74l34.89,95.02,1.56,4.21,6.08-16.82,30.22-83.81v98.14c0,3.58-1.87,7.32-4.67,9.5l-1.09.78h23.37l-1.09-.78c-2.96-2.18-4.83-5.92-4.83-9.5v-95.8c0-3.74,1.87-7.48,4.83-9.66Z"/>
      <path d="M150.93,281.85h-26.01v-53.9h11.53c7.16,0,13.08,4.52,15.11,11.37l1.09,3.27v-32.09l-1.09,3.27c-2.03,6.85-7.95,11.37-15.11,11.37h-11.53v-53.9h24.46c8.88,0,16.82,5.61,19.47,14.17l2.65,7.63-2.8-24.77h-61.22l1.09.78c2.81,2.18,4.67,5.92,4.67,9.66v95.8c0,3.58-1.87,7.32-4.67,9.5l-1.09.78h62.62l2.96-24.77-2.65,7.79c-2.96,8.41-10.59,14.02-19.47,14.02Z"/>
      <path d="M249.53,274.53l-19.01-37.39s0,0,0,0l-3.87-7.61c13.51-3.28,22.09-14.42,22.09-30.08,0-18.69-12.31-31.15-30.84-31.15h-37.54l1.09.78c2.8,2.18,4.67,5.92,4.67,9.66v95.8c0,3.58-1.87,7.32-4.67,9.5l-1.09.78h23.37l-1.09-.78c-2.96-2.18-4.83-5.92-4.83-9.5v-43.93h17.6l22.43,43.93c1.87,3.58,1.71,7.32-1.09,9.5l-1.09.78h23.37l-1.09-.78c-2.81-2.18-6.54-5.92-8.41-9.5ZM209.18,227.79h-11.37v-56.54h11.37c16.82,0,28.04,11.22,28.04,28.2s-11.22,28.35-28.04,28.35Z"/>
      <path d="M332.24,274.53l-19.01-37.39s0,0,0,0l-3.87-7.61c13.51-3.28,22.09-14.42,22.09-30.08,0-18.69-12.31-31.15-30.84-31.15h-37.54l1.09.78c2.8,2.18,4.67,5.92,4.67,9.66v95.8c0,3.58-1.87,7.32-4.67,9.5l-1.09.78h23.37l-1.09-.78c-2.96-2.18-4.83-5.92-4.83-9.5v-43.93h17.6l22.43,43.93c1.87,3.58,1.71,7.32-1.09,9.5l-1.09.78h23.37l-1.09-.78c-2.81-2.18-6.54-5.92-8.41-9.5ZM291.89,227.79h-11.37v-56.54h11.37c16.82,0,28.04,11.22,28.04,28.2s-11.22,28.35-28.04,28.35Z"/>
      <path d="M583.42,274.65l-31.62-106.36-31.31,106.36c-.94,3.54-4.05,7.23-7.63,9.39l-1.09.77h14.64l-.78-.77c-2.34-2.15-3.12-5.85-2.03-9.39l6.23-21.55h35.05l6.39,21.55c1.09,3.54.47,7.23-1.87,9.39l-.78.77h23.68l-1.25-.77c-3.43-2.15-6.7-5.85-7.63-9.39ZM530.77,250.33l16.67-56.79,16.67,56.79h-33.34Z"/>
      <path d="M637.62,168.29l.47.78c1.71,2.18,1.25,5.76-.78,9.66l-20.72,40.19-20.1-40.19c-1.87-3.74-1.87-7.48,0-9.66l.62-.78h-24.77l1.4.78c4.05,2.18,7.79,5.92,9.66,9.66l23.21,46.11v49.69c0,3.58-1.87,7.32-4.83,9.5l-1.09.78h23.37l-1.09-.78c-2.81-2.18-4.83-5.92-4.83-9.5v-52.5l22.43-43.3c2.02-3.89,6.39-7.48,10.59-9.66l1.4-.78h-14.95Z"/>
      <path d="M396.72,168.29l.47.78c1.71,2.18,1.25,5.76-.78,9.66l-20.72,40.19-20.1-40.19c-1.87-3.74-1.87-7.48,0-9.66l.62-.78h-24.77l1.4.78c4.05,2.18,7.79,5.92,9.66,9.66l23.21,46.11v49.69c0,3.58-1.87,7.32-4.83,9.5l-1.09.78h23.37l-1.09-.78c-2.81-2.18-4.83-5.92-4.83-9.5v-52.5l22.43-43.3c2.02-3.89,6.39-7.48,10.59-9.66l1.4-.78h-14.95Z"/>
      <path d="M424.4,178.6c-.93-3.69-4.21-7.39-7.79-9.54l-1.09-.77h23.68l-.78.77c-2.34,2.15-2.8,5.85-1.87,9.54l19.47,77.11,18.07-71.11-1.71-6c-.78-3.69-4.21-7.39-7.63-9.54l-1.25-.77h23.83l-.94.77c-2.34,2.15-2.8,5.85-1.87,9.54l19.47,77.11,19.63-77.11c.78-3.69.16-7.39-2.18-9.54l-.78-.77h14.64l-1.09.77c-3.58,2.15-6.7,5.85-7.63,9.54l-26.95,106.2-24.15-94.35-23.83,94.35-27.26-106.2Z"/>
    </g>
    <path d="M155.04,151.73l-1.09.78h62.62l2.96-27.2-2.65,7.79c-2.96,8.41-10.59,16.45-19.47,16.45h-26.01v-53.9h11.53c7.17,0,13.09,4.52,15.11,11.37l1.09,3.27v-32.09l-1.09,3.27c-2.02,6.85-7.94,11.37-15.11,11.37h-11.53v-53.9h24.46c8.88,0,16.82,5.61,19.47,14.18l2.65,7.63-2.8-24.77h-61.22l1.09.78c2.8,2.18,4.67,5.92,4.67,9.66v95.8c0,3.58-1.87,7.32-4.67,9.5Z"/>
    <path d="M296.49,151.73l-1.09.78h62.62l2.96-33.29-2.65,7.79c-2.96,8.41-10.59,22.54-19.47,22.54h-26.01V46.42c0-3.74,1.86-7.48,4.82-9.66l1.09-.78h-23.37l1.09.78c2.8,2.18,4.67,5.92,4.67,9.66v95.8c0,3.58-1.87,7.32-4.67,9.5Z"/>
    <path d="M226.71,151.73l-1.09.78h62.62l2.96-33.29-2.65,7.79c-2.96,8.41-10.59,22.54-19.47,22.54h-26.01V46.42c0-3.74,1.86-7.48,4.82-9.66l1.09-.78h-23.37l1.09.78c2.8,2.18,4.67,5.92,4.67,9.66v95.8c0,3.58-1.87,7.32-4.67,9.5Z"/>
    <path d="M406.69,153.91c18.23,0,31.15-12.62,31.15-30.69,0-37.54-55.92-36.45-55.92-66.36,0-10.9,7.32-19.32,18.22-19.32,12.31,0,26.48,10.59,33.18,31.62v-33.18c-8.83,10.02-12.93-1.4-33.8-1.4-16.2,0-28.35,11.53-28.35,26.95,0,33.02,55.92,31.93,55.92,66.83,0,13.55-8.41,22.74-21.18,22.74-13.71,0-29.44-10.75-36.14-31.78v33.18c10.55-10.5,14.49,1.4,36.92,1.4Z"/>
    <path d="M444.31,151.73l-1.09.78h37.54c19.32,0,30.84-11.68,30.84-30.53s-11.22-29.6-28.2-30.69c15.27-2.03,25.39-12.31,25.39-26.79,0-16.04-12.46-28.51-31-28.51h-34.58l1.09.78c2.8,2.18,4.67,5.92,4.67,9.66v95.8c0,3.58-1.87,7.32-4.67,9.5ZM460.66,38.94h8.41c16.82,0,28.04,11.22,28.04,25.55s-11.22,25.7-28.04,25.7h-8.41v-51.25ZM460.66,93.15h11.37c16.82,0,28.04,11.22,28.04,28.51s-10.91,27.88-28.04,27.88h-11.37v-56.39Z"/>
    <path d="M519.23,46.42l23.21,46.11v49.69c0,3.58-1.87,7.32-4.83,9.5l-1.09.78h23.37l-1.09-.78c-2.8-2.18-4.83-5.92-4.83-9.5v-52.5l22.43-43.3c2.02-3.89,6.39-7.48,10.59-9.66l1.4-.78h-14.95l.47.78c1.71,2.18,1.25,5.76-.78,9.66l-20.72,40.19-20.1-40.19c-1.87-3.74-1.87-7.48,0-9.66l.62-.78h-24.77l1.4.78c4.05,2.18,7.79,5.92,9.66,9.66Z"/>
    <path d="M122.45,152.5h24.77l-1.56-.78c-3.89-2.18-7.63-5.92-9.5-9.5l-9.39-18.79h0s-25.88-51.76-25.88-51.76l23.59-25.25c3.12-3.43,8.26-7.48,12.46-9.66l1.56-.78h-15.11l.62.78c1.56,2.18.16,6.23-2.96,9.66l-39.41,42.21v-42.21c0-3.74,1.87-7.48,4.83-9.66l1.09-.78h-23.37l1.09.78c2.8,2.18,4.67,5.92,4.67,9.66v95.8c0,3.58-1.87,7.32-4.67,9.5l-1.09.78h23.37l-1.09-.78c-2.96-2.18-4.83-5.92-4.83-9.5v-50.16h.16l10.44-11.22,30.84,61.37c1.87,3.58,1.87,7.32,0,9.5l-.63.78Z"/>
  </g>
  <g>
    <path d="M130.1,407.69l.23-.94c1.57,0,2.96-.38,4.19-1.14,1.23-.76,1.92-2.02,2.07-3.8l.63-8.46h-16.21c-.78,1.46-1.57,2.91-2.35,4.35-.78,1.44-1.59,2.86-2.43,4.27-.89,1.72-.97,2.95-.23,3.68.73.73,1.88,1.1,3.44,1.1l-.16.94h-13.31l.23-.94c1.88,0,3.42-.38,4.62-1.14,1.2-.76,2.32-2.02,3.37-3.8l1.64-2.9,20.67-37.11c.21-.42.44-.85.7-1.29.26-.44.48-.89.67-1.33.18-.44.27-.87.27-1.29s-.16-.76-.47-1.02c1.15,0,2.52-.56,4.11-1.68,1.59-1.12,3.04-3.2,4.35-6.22l-4.07,52.85c-.16,1.62.27,2.85,1.29,3.68,1.02.84,2.28,1.25,3.8,1.25l-.23.94h-16.83ZM137.38,391.48l2.43-31.71-17.69,31.71h15.27Z"/>
    <path d="M216.45,351.24l-4.93,22.08h-.94c.16-1.04.26-2.11.31-3.21.05-.94.04-2-.04-3.17-.08-1.17-.27-2.31-.59-3.41-.73-2.92-1.92-5.09-3.56-6.5-1.64-1.41-3.47-2.17-5.48-2.27-2.01-.1-4.08.35-6.22,1.37-2.14,1.02-4.05,2.52-5.72,4.5-1.31,1.52-2.58,3.39-3.84,5.64-1.25,2.24-2.38,4.67-3.37,7.28-.99,2.61-1.77,5.31-2.35,8.1-.57,2.79-.82,5.51-.74,8.14.08,2.64.55,5.1,1.41,7.4.86,2.3,2.2,4.25,4.03,5.87,1.1.94,2.35,1.64,3.76,2.11,1.41.47,2.98.63,4.7.47,2.77-.21,5.27-1.02,7.52-2.43,2.24-1.41,4.21-3.16,5.91-5.25,1.69-2.09,3.13-4.4,4.31-6.93,1.17-2.53,2.07-5.02,2.7-7.48h1.02c-.63,2.92-1.6,5.82-2.94,8.69-1.33,2.87-2.94,5.45-4.81,7.75-1.88,2.3-4.05,4.18-6.5,5.64-2.45,1.46-5.14,2.27-8.06,2.43-1.83.1-3.5.01-5.01-.27-1.51-.29-2.95-.77-4.31-1.45-2.4-1.25-4.35-3.03-5.83-5.32s-2.53-4.88-3.13-7.75c-.6-2.87-.78-5.94-.55-9.2s.86-6.47,1.88-9.63c1.02-3.16,2.43-6.15,4.23-8.96,1.8-2.82,3.94-5.23,6.42-7.24,2.48-2.01,5.31-3.5,8.49-4.46,3.18-.97,6.66-1.19,10.41-.67,1.41.21,2.71.41,3.91.59,1.2.18,2.27.25,3.21.2.94-.05,1.73-.27,2.39-.67.65-.39,1.08-1.06,1.29-2h1.02Z"/>
    <path d="M219.43,382.56c.16-.63.27-1.27.35-1.92s.09-1.21.04-1.68c-.05-.47-.2-.78-.43-.94-.24-.16-.59-.08-1.06.23-.73.47-1.41,1.11-2.04,1.92-.63.81-1.23,1.68-1.8,2.62h-1.17c.94-1.83,2.01-3.48,3.21-4.97,1.2-1.49,2.48-2.49,3.84-3.01.68-.26,1.33-.3,1.96-.12.63.18,1.15.61,1.57,1.29.63,1.04.83,2.18.63,3.41-.21,1.23-.44,2.36-.71,3.41-.05.26-.21.99-.47,2.19-.26,1.2-.6,2.71-1.02,4.54,1.1-2.19,2.34-4.38,3.72-6.58,1.38-2.19,2.78-4.1,4.19-5.72.89-1.04,1.79-1.76,2.7-2.15.91-.39,1.73-.53,2.47-.43,1.04.11,1.89.55,2.54,1.33.65.78.93,1.7.82,2.74-.11.63-.3,1.23-.59,1.8-.29.57-.67,1.04-1.14,1.41-.47.37-.99.63-1.57.78-.57.16-1.07.16-1.49,0-.42-.16-.74-.48-.98-.98-.23-.49-.27-1.16-.12-2,0-.1.01-.2.04-.27.03-.08.04-.17.04-.27-.11-.57-.39-.86-.86-.86-.37,0-.76.16-1.17.47-.42.26-.78.61-1.1,1.06-.31.44-.6.82-.86,1.14-1.72,2.51-3.14,4.87-4.27,7.08-1.12,2.22-2.07,4.39-2.86,6.5s-1.45,4.23-2,6.34c-.55,2.11-1.14,4.37-1.76,6.77h-4.46l5.79-25.13Z"/>
    <path d="M239.23,392.58c-.26.99-.44,2.14-.55,3.44-.11,1.31-.05,2.58.16,3.84.21,1.25.61,2.4,1.21,3.44s1.5,1.8,2.7,2.27c1.67.68,3.6.46,5.79-.67,2.19-1.12,4.2-3.17,6.03-6.15l.94-1.64h1.33c-1.67,3.24-3.5,5.77-5.48,7.59-1.2,1.2-2.57,2.09-4.11,2.66-1.54.57-3.07.81-4.58.7-2.45-.11-4.35-.82-5.68-2.15-1.33-1.33-2.18-3.01-2.54-5.05-.36-2.04-.3-4.28.2-6.73.5-2.45,1.32-4.85,2.47-7.2s2.6-4.5,4.35-6.46c1.75-1.96,3.67-3.46,5.75-4.5,1.2-.57,2.45-.98,3.76-1.21,1.3-.23,2.51-.22,3.6.04,1.51.31,2.66,1.07,3.44,2.27.78,1.2.78,2.85,0,4.93-.21.57-.48,1.11-.82,1.61-.34.5-.72,1-1.14,1.53-.94,1.04-2.05,2.06-3.33,3.05-1.28.99-2.66,1.84-4.15,2.54s-3.04,1.23-4.66,1.57c-1.62.34-3.18.43-4.7.27ZM253.79,383.73c1.1-1.57,1.72-2.95,1.88-4.15.16-1.2-.01-2.11-.51-2.74-.5-.63-1.31-.91-2.43-.86-1.12.05-2.44.57-3.95,1.57-.99.63-1.96,1.42-2.9,2.39-.94.97-1.81,2.06-2.62,3.29-.81,1.23-1.53,2.53-2.15,3.91-.63,1.38-1.15,2.78-1.57,4.19,2.82.05,5.49-.61,8.02-2,2.53-1.38,4.61-3.25,6.22-5.6Z"/>
    <path d="M278.92,375.2l.08-.47c1.15,0,2.23-.16,3.25-.47s1.94-.94,2.78-1.88h.47l-.63,2.9-5.79,24.9c-.16.63-.27,1.27-.35,1.92s-.09,1.2-.04,1.64c.05.44.2.76.43.94.23.18.61.12,1.14-.2,1.04-.73,2.01-1.77,2.9-3.13.89-1.36,1.64-2.77,2.27-4.23h1.1c-.47,1.15-1.02,2.3-1.64,3.44-.63,1.15-1.29,2.22-2,3.21-.7.99-1.46,1.85-2.27,2.58-.81.73-1.6,1.25-2.39,1.57-.73.26-1.41.29-2.03.08-.63-.21-1.15-.63-1.57-1.25-.57-1.04-.77-2.18-.59-3.41.18-1.22.4-2.39.67-3.48l1.17-5.17c-.99,2.04-2.1,4.05-3.33,6.03-1.23,1.99-2.65,3.73-4.27,5.25-.94.84-1.85,1.41-2.74,1.72-.89.31-1.7.44-2.43.39-1.88-.11-3.34-1.15-4.38-3.13-1.04-1.98-1.43-4.36-1.17-7.12.21-2.3.7-4.71,1.49-7.24.78-2.53,1.8-4.89,3.05-7.08,1.25-2.19,2.7-4.1,4.35-5.72,1.64-1.62,3.46-2.63,5.44-3.05,2.19-.47,3.89-.22,5.09.74,1.2.97,2.01,2.28,2.43,3.95.1-.31.21-.69.31-1.14.1-.44.16-.87.16-1.29s-.05-.79-.16-1.13c-.11-.34-.37-.56-.78-.67ZM276.42,377.55c-1.05-.78-2.22-.94-3.52-.47-.99.31-2,1.03-3.01,2.15-1.02,1.12-1.97,2.47-2.86,4.03-.89,1.57-1.7,3.29-2.43,5.17-.73,1.88-1.33,3.73-1.8,5.56s-.77,3.55-.9,5.17c-.13,1.62-.07,2.97.2,4.07.36,1.41.98,2.21,1.84,2.39.86.18,1.79-.09,2.78-.82.63-.47,1.3-1.11,2.04-1.92.73-.81,1.45-1.71,2.15-2.7.7-.99,1.41-2.04,2.11-3.13s1.34-2.19,1.92-3.29c.47-.89,1.02-2.09,1.64-3.6.63-1.51,1.11-3.08,1.45-4.7.34-1.62.43-3.14.27-4.58-.16-1.43-.78-2.54-1.88-3.33Z"/>
    <path d="M298.89,368.54l-1.33,6.03h3.84l-.31,1.49h-3.91c-.89,4.07-1.8,8.1-2.74,12.1-.94,3.99-1.88,8-2.82,12.02-.16.63-.27,1.27-.35,1.92s-.09,1.2-.04,1.64c.05.44.2.76.43.94.23.18.61.12,1.14-.2,1.04-.73,2.01-1.77,2.9-3.13.89-1.36,1.64-2.77,2.27-4.23h1.1c-.47,1.15-1.02,2.3-1.64,3.44-.63,1.15-1.29,2.22-2,3.21-.7.99-1.46,1.85-2.27,2.58-.81.73-1.6,1.25-2.39,1.57-.73.26-1.41.29-2.03.08-.63-.21-1.15-.63-1.57-1.25-.57-1.04-.77-2.18-.59-3.41.18-1.22.4-2.39.66-3.48.47-2.04.87-3.77,1.21-5.21.34-1.43.64-2.73.9-3.87.26-1.15.51-2.24.74-3.29.23-1.04.48-2.19.74-3.44.36-1.51.68-2.87.94-4.07.26-1.2.57-2.51.94-3.91h-4.15l.31-1.49h.7c2.09,0,3.77-.55,5.05-1.64,1.28-1.1,2.36-2.56,3.25-4.38h1.02Z"/>
    <path d="M306.32,400.17c-.16.63-.27,1.27-.35,1.92-.08.65-.09,1.2-.04,1.64.05.44.2.76.43.94.23.18.61.12,1.14-.2,1.04-.73,2.01-1.77,2.9-3.13.89-1.36,1.64-2.77,2.27-4.23h1.1c-.47,1.15-1.02,2.3-1.64,3.44-.63,1.15-1.29,2.22-2,3.21s-1.46,1.85-2.27,2.58c-.81.73-1.6,1.25-2.39,1.57-.73.26-1.41.29-2.04.08-.63-.21-1.15-.63-1.57-1.25-.57-1.04-.77-2.18-.59-3.41.18-1.22.4-2.39.67-3.48l3.99-17.3c.16-.63.27-1.27.35-1.92s.09-1.21.04-1.68c-.05-.47-.2-.78-.43-.94-.24-.16-.59-.08-1.06.23-.73.47-1.41,1.11-2.04,1.92-.63.81-1.23,1.68-1.8,2.62h-1.17c.94-1.83,2.01-3.48,3.21-4.97,1.2-1.49,2.48-2.49,3.84-3.01.68-.26,1.33-.3,1.96-.12.63.18,1.15.61,1.57,1.29.63,1.04.83,2.18.63,3.41-.21,1.23-.44,2.36-.71,3.41l-3.99,17.38ZM312.51,360.56c.83,0,1.5.39,2,1.17.5.78.69,1.72.59,2.82-.11,1.15-.5,2.11-1.17,2.9-.68.78-1.46,1.17-2.35,1.17s-1.58-.39-2.07-1.17c-.5-.78-.67-1.75-.51-2.9.1-1.09.49-2.03,1.17-2.82.68-.78,1.46-1.17,2.35-1.17Z"/>
    <path d="M319.56,407.69l-1.49-25.13c-.05-.63-.12-1.27-.2-1.92-.08-.65-.21-1.21-.39-1.68-.18-.47-.42-.78-.7-.94-.29-.16-.64-.08-1.06.23-.58.47-1.07,1.11-1.49,1.92-.42.81-.76,1.68-1.02,2.62h-1.17c.26-1.1.57-2.14.94-3.13.37-.99.81-1.85,1.33-2.58,1.15-1.67,2.48-2.51,3.99-2.51.63.05,1.23.26,1.8.63.57.37,1.07.99,1.49,1.88.42.99.68,2.02.78,3.09.1,1.07.18,1.94.23,2.62.16,3.29.33,6.55.51,9.79.18,3.24.38,6.5.59,9.79,1.1-1.51,2.28-3.25,3.56-5.21,1.28-1.96,2.47-3.93,3.56-5.91.31-.63.69-1.45,1.14-2.47.44-1.02.8-2.07,1.06-3.17.26-1.1.42-2.14.47-3.13.05-.99-.16-1.75-.63-2.27-.26-.26-.51-.47-.74-.63-.23-.16-.48-.31-.74-.47-.63-.47-.98-.99-1.06-1.56s.03-1.11.31-1.61c.29-.5.73-.89,1.33-1.17.6-.29,1.24-.38,1.92-.27.63.11,1.21.34,1.76.7.55.37.95.89,1.21,1.57.36.84.46,1.83.27,2.97-.18,1.15-.48,2.3-.9,3.44-.42,1.15-.87,2.23-1.37,3.25-.5,1.02-.9,1.84-1.21,2.47-.73,1.31-1.44,2.52-2.11,3.64-.68,1.12-1.28,2.05-1.8,2.78-.89,1.41-1.77,2.79-2.66,4.15-.89,1.36-1.71,2.58-2.47,3.68-.76,1.1-1.44,2.04-2.04,2.82-.6.78-1.03,1.36-1.29,1.72h-1.72Z"/>
    <path d="M339.99,392.58c-.26.99-.44,2.14-.55,3.44-.11,1.31-.05,2.58.16,3.84.21,1.25.61,2.4,1.21,3.44.6,1.04,1.5,1.8,2.7,2.27,1.67.68,3.6.46,5.79-.67,2.19-1.12,4.2-3.17,6.03-6.15l.94-1.64h1.33c-1.67,3.24-3.5,5.77-5.48,7.59-1.2,1.2-2.57,2.09-4.11,2.66-1.54.57-3.07.81-4.58.7-2.45-.11-4.35-.82-5.68-2.15-1.33-1.33-2.18-3.01-2.54-5.05-.36-2.04-.3-4.28.2-6.73.5-2.45,1.32-4.85,2.47-7.2s2.6-4.5,4.35-6.46c1.75-1.96,3.67-3.46,5.75-4.5,1.2-.57,2.45-.98,3.76-1.21,1.3-.23,2.51-.22,3.6.04,1.51.31,2.66,1.07,3.44,2.27.78,1.2.78,2.85,0,4.93-.21.57-.48,1.11-.82,1.61-.34.5-.72,1-1.14,1.53-.94,1.04-2.05,2.06-3.33,3.05-1.28.99-2.66,1.84-4.15,2.54-1.49.7-3.04,1.23-4.66,1.57-1.62.34-3.18.43-4.7.27ZM354.55,383.73c1.1-1.57,1.72-2.95,1.88-4.15.16-1.2-.01-2.11-.51-2.74-.5-.63-1.31-.91-2.43-.86s-2.44.57-3.95,1.57c-.99.63-1.96,1.42-2.9,2.39-.94.97-1.81,2.06-2.62,3.29-.81,1.23-1.53,2.53-2.15,3.91-.63,1.38-1.15,2.78-1.57,4.19,2.82.05,5.49-.61,8.02-2s4.61-3.25,6.22-5.6Z"/>
    <path d="M389.55,390.7l7.12-30.06.47-1.88c.36-1.51.14-2.71-.66-3.6-.81-.89-1.97-1.33-3.48-1.33l.23-.94h16.05l-.23.94c-1.93,0-3.39.44-4.39,1.33-.99.89-1.7,2.24-2.11,4.07l-6.97,29.36c-.84,3.55-2.04,7.11-3.6,10.69-1.57,3.58-3.54,6.81-5.91,9.71s-5.15,5.3-8.34,7.2c-3.18,1.9-6.81,2.96-10.88,3.17l-.47-.94c2.24-.05,4.31-.52,6.18-1.41,1.88-.89,3.6-2.06,5.17-3.52s2.99-3.12,4.27-4.97c1.28-1.85,2.4-3.8,3.37-5.83.97-2.04,1.8-4.08,2.51-6.15.7-2.06,1.27-4,1.68-5.83Z"/>
    <path d="M399.02,391.33c.78-3.71,2.02-6.8,3.72-9.28,1.7-2.48,3.53-4.35,5.52-5.6,1.98-1.25,3.98-1.88,5.99-1.88s3.73.63,5.17,1.88c1.43,1.25,2.45,3.12,3.05,5.6.6,2.48.51,5.57-.27,9.28-.78,3.71-2.02,6.81-3.72,9.32-1.7,2.51-3.54,4.38-5.52,5.64-1.98,1.25-3.98,1.86-5.99,1.84-2.01-.03-3.73-.65-5.17-1.88-1.43-1.23-2.47-3.09-3.09-5.6-.63-2.51-.52-5.61.31-9.32ZM403.4,391.33c-.73,3.5-.98,6.39-.74,8.69.23,2.3.76,4.01,1.56,5.13.81,1.12,1.84,1.67,3.09,1.65,1.25-.03,2.54-.63,3.87-1.8,1.33-1.18,2.58-2.9,3.76-5.17,1.17-2.27,2.13-5.1,2.86-8.49.73-3.5.99-6.39.78-8.69-.21-2.3-.73-3.99-1.57-5.09-.84-1.1-1.88-1.62-3.13-1.57-1.25.05-2.54.66-3.87,1.84s-2.6,2.9-3.8,5.17c-1.2,2.27-2.14,5.05-2.82,8.34Z"/>
    <path d="M430.18,400.17c-.16.63-.27,1.27-.35,1.92s-.09,1.2-.04,1.64c.05.44.2.76.43.94.23.18.61.12,1.13-.2.89-.57,1.75-1.46,2.58-2.66.84-1.2,1.7-2.56,2.58-4.07.99-1.77,1.94-3.71,2.86-5.79.91-2.09,1.76-4.19,2.54-6.3.78-2.11,1.46-4.14,2.03-6.07s1.02-3.6,1.33-5.01h4.46l-5.87,25.6c-.16.63-.27,1.27-.35,1.92s-.09,1.2-.04,1.64c.05.44.2.76.43.94.23.18.59.12,1.06-.2,1.04-.73,2.02-1.77,2.94-3.13.91-1.36,1.66-2.77,2.23-4.23h1.09c-.47,1.15-1,2.3-1.6,3.44-.6,1.15-1.25,2.22-1.96,3.21s-1.46,1.85-2.27,2.58c-.81.73-1.6,1.25-2.39,1.57-.73.26-1.41.29-2.04.08-.63-.21-1.15-.63-1.56-1.25-.63-1.04-.84-2.18-.63-3.41.21-1.22.44-2.39.7-3.48l2.43-10.41c-.63,1.41-1.29,2.87-2,4.38-.7,1.51-1.45,3-2.23,4.46-.42.73-.95,1.66-1.61,2.78-.65,1.12-1.38,2.21-2.19,3.25-.81,1.04-1.71,1.95-2.7,2.7-.99.76-2.01,1.13-3.05,1.13s-1.85-.47-2.43-1.41c-.57-1.04-.77-2.18-.59-3.41.18-1.22.4-2.39.67-3.48l3.99-17.3c.16-.63.27-1.27.35-1.92.08-.65.09-1.21.04-1.68-.05-.47-.2-.78-.43-.94-.24-.16-.59-.08-1.06.23-.73.47-1.41,1.11-2.04,1.92-.63.81-1.23,1.68-1.8,2.62h-1.18c.94-1.83,2.01-3.48,3.21-4.97,1.2-1.49,2.48-2.49,3.84-3.01.68-.26,1.33-.3,1.96-.12s1.15.61,1.57,1.29c.63,1.04.83,2.18.63,3.41-.21,1.23-.45,2.36-.71,3.41l-3.99,17.38Z"/>
    <path d="M457.34,382.56c.16-.63.27-1.27.35-1.92.08-.65.09-1.21.04-1.68s-.2-.78-.43-.94c-.23-.16-.59-.08-1.06.23-.73.47-1.41,1.11-2.04,1.92s-1.23,1.68-1.8,2.62h-1.17c.94-1.83,2.01-3.48,3.21-4.97,1.2-1.49,2.48-2.49,3.84-3.01.68-.26,1.33-.3,1.96-.12.63.18,1.15.61,1.57,1.29.63,1.04.83,2.18.63,3.41-.21,1.23-.44,2.36-.7,3.41-.05.26-.21.99-.47,2.19-.26,1.2-.6,2.71-1.02,4.54,1.1-2.19,2.34-4.38,3.72-6.58,1.38-2.19,2.78-4.1,4.19-5.72.89-1.04,1.79-1.76,2.7-2.15.91-.39,1.73-.53,2.47-.43,1.04.11,1.89.55,2.54,1.33.65.78.93,1.7.82,2.74-.11.63-.3,1.23-.59,1.8-.29.57-.67,1.04-1.14,1.41-.47.37-.99.63-1.57.78-.57.16-1.07.16-1.49,0-.42-.16-.74-.48-.98-.98-.23-.49-.27-1.16-.12-2,0-.1.01-.2.04-.27.02-.08.04-.17.04-.27-.11-.57-.39-.86-.86-.86-.36,0-.76.16-1.17.47-.42.26-.78.61-1.1,1.06-.31.44-.6.82-.86,1.14-1.72,2.51-3.15,4.87-4.27,7.08-1.12,2.22-2.07,4.39-2.86,6.5-.78,2.11-1.45,4.23-2,6.34-.55,2.11-1.13,4.37-1.76,6.77h-4.46l5.79-25.13Z"/>
    <path d="M482.08,382.56c.16-.63.27-1.27.35-1.92.08-.65.09-1.21.04-1.68-.05-.47-.2-.78-.43-.94-.24-.16-.59-.08-1.06.23-.73.47-1.41,1.11-2.04,1.92-.63.81-1.23,1.68-1.8,2.62h-1.18c.94-1.83,2.01-3.48,3.21-4.97,1.2-1.49,2.48-2.49,3.84-3.01.68-.26,1.33-.3,1.96-.12s1.15.61,1.57,1.29c.63,1.04.83,2.18.63,3.41-.21,1.23-.45,2.36-.71,3.41l-.94,4.38c.26-.57.55-1.12.86-1.64s.63-1.07.94-1.65c.52-.78,1.17-1.76,1.96-2.94.78-1.17,1.67-2.27,2.66-3.29.99-1.02,2.02-1.84,3.09-2.47,1.07-.63,2.13-.78,3.17-.47.47.11.9.34,1.29.7.39.37.68.94.86,1.72.18.78.22,1.83.12,3.13-.11,1.31-.42,2.95-.94,4.93-.57,2.51-1.15,5-1.72,7.48s-1.15,4.97-1.72,7.48c-.16.63-.27,1.27-.35,1.92-.08.65-.09,1.2-.04,1.64.05.44.2.76.43.94.23.18.59.12,1.06-.2,1.04-.73,2.01-1.77,2.9-3.13.89-1.36,1.65-2.77,2.27-4.23h1.1c-.47,1.15-1,2.3-1.6,3.44-.6,1.15-1.27,2.22-2,3.21-.73.99-1.49,1.85-2.27,2.58-.78.73-1.59,1.25-2.43,1.57-1.52.52-2.69.13-3.52-1.17-.63-1.04-.84-2.18-.63-3.41.21-1.22.44-2.39.71-3.48.68-2.92,1.34-5.83,2-8.73.65-2.9,1.29-5.81,1.92-8.73.21-1.04.26-1.92.16-2.62s-.34-1.19-.7-1.45c-.37-.26-.85-.27-1.45-.04s-1.29.8-2.07,1.68c-.73.78-1.37,1.62-1.92,2.51-.55.89-.95,1.54-1.21,1.96-1.2,2.09-2.18,4.03-2.94,5.83-.76,1.8-1.4,3.62-1.92,5.44-.52,1.83-.98,3.71-1.37,5.64-.39,1.93-.87,4.05-1.45,6.34h-4.46l5.79-25.13Z"/>
    <path d="M523.42,375.2l.08-.47c1.15,0,2.23-.16,3.25-.47,1.02-.31,1.94-.94,2.78-1.88h.47l-.63,2.9-5.79,24.9c-.16.63-.27,1.27-.35,1.92-.08.65-.09,1.2-.04,1.64.05.44.2.76.43.94.23.18.61.12,1.13-.2,1.04-.73,2.01-1.77,2.9-3.13.89-1.36,1.64-2.77,2.27-4.23h1.1c-.47,1.15-1.02,2.3-1.64,3.44-.63,1.15-1.29,2.22-2,3.21-.7.99-1.46,1.85-2.27,2.58-.81.73-1.6,1.25-2.39,1.57-.73.26-1.41.29-2.03.08-.63-.21-1.15-.63-1.57-1.25-.57-1.04-.77-2.18-.59-3.41.18-1.22.4-2.39.66-3.48l1.17-5.17c-.99,2.04-2.1,4.05-3.33,6.03-1.23,1.99-2.65,3.73-4.27,5.25-.94.84-1.85,1.41-2.74,1.72-.89.31-1.7.44-2.43.39-1.88-.11-3.34-1.15-4.38-3.13-1.04-1.98-1.43-4.36-1.17-7.12.21-2.3.7-4.71,1.49-7.24.78-2.53,1.8-4.89,3.05-7.08,1.25-2.19,2.7-4.1,4.34-5.72s3.46-2.63,5.44-3.05c2.19-.47,3.89-.22,5.09.74,1.2.97,2.01,2.28,2.43,3.95.1-.31.21-.69.31-1.14.1-.44.16-.87.16-1.29s-.05-.79-.16-1.13c-.11-.34-.37-.56-.78-.67ZM520.91,377.55c-1.05-.78-2.22-.94-3.52-.47-.99.31-2,1.03-3.01,2.15-1.02,1.12-1.97,2.47-2.86,4.03s-1.7,3.29-2.43,5.17c-.73,1.88-1.33,3.73-1.8,5.56s-.77,3.55-.9,5.17c-.13,1.62-.07,2.97.2,4.07.36,1.41.98,2.21,1.84,2.39.86.18,1.79-.09,2.78-.82.63-.47,1.3-1.11,2.04-1.92.73-.81,1.45-1.71,2.15-2.7.7-.99,1.41-2.04,2.11-3.13s1.34-2.19,1.92-3.29c.47-.89,1.02-2.09,1.64-3.6.63-1.51,1.11-3.08,1.45-4.7.34-1.62.43-3.14.27-4.58-.16-1.43-.78-2.54-1.88-3.33Z"/>
    <path d="M539.7,365.1c.16-.73.29-1.42.39-2.08.1-.65.09-1.24-.04-1.76-.13-.52-.39-.97-.78-1.33-.39-.36-.98-.57-1.76-.63l.16-.47c.68,0,1.43-.1,2.27-.31.83-.21,1.67-.5,2.51-.86.83-.36,1.58-.79,2.23-1.29.65-.5,1.13-1.03,1.45-1.6h.47l-.7,2.9c-1.62,7.15-3.24,14.24-4.85,21.26-1.62,7.02-3.26,14.11-4.93,21.26-.16.63-.27,1.27-.35,1.92-.08.65-.09,1.2-.04,1.64.05.44.2.76.43.94.23.18.61.12,1.14-.2,1.04-.73,2.01-1.77,2.9-3.13.89-1.36,1.64-2.77,2.27-4.23h1.09c-.47,1.15-1.02,2.3-1.64,3.44s-1.29,2.22-2,3.21-1.46,1.85-2.27,2.58c-.81.73-1.61,1.25-2.39,1.57-.73.26-1.41.29-2.04.08s-1.15-.63-1.57-1.25c-.57-1.04-.77-2.18-.59-3.41.18-1.22.41-2.39.66-3.48l7.99-34.76Z"/>
  </g>
  <rect x="0" y="314.39" width="652.58" height="5"/>
  <rect x="0" width="652.58" height="5"/>
</svg>